<svg width="100" height="96" viewBox="0 0 100 96" fill="none" xmlns="http://www.w3.org/2000/svg">
<path d="M84.1055 73.3099H15.9453C10.9258 73.3099 6.67578 76.4843 5.20312 80.876C17.6953 89.9137 33.1875 95.265 49.9648 95.265C66.7852 95.265 82.3125 89.8909 94.8242 80.8116C93.3281 76.4539 89.0977 73.3099 84.1055 73.3099Z" fill="white"/>
<path d="M6.26953 21.7275H93.6641C97.125 21.7275 99.9336 24.4505 99.9336 27.8107V36.2264C99.9336 39.5866 97.125 42.3096 93.6641 42.3096H6.26953C2.80469 42.3096 0 39.5866 0 36.2264V27.8107C0 24.4505 2.80469 21.7275 6.26953 21.7275Z" fill="white"/>
<path d="M81.1641 0H18.8828C11.1328 0 4.84766 6.10221 4.84766 13.6304V49.0983C4.84766 56.6265 11.1328 62.7287 18.8828 62.7287H81.1641C88.918 62.7287 95.2031 56.6265 95.2031 49.0983V13.6304C95.2031 6.10221 88.918 0 81.1641 0Z" fill="white"/>
<path d="M75.8164 50.2512H24.2305C18.3516 50.2512 13.543 45.5826 13.543 39.8748V23.0094C13.543 17.3016 18.3516 12.6292 24.2305 12.6292H75.8164C81.6953 12.6292 86.5078 17.3016 86.5078 23.0094V39.8748C86.5078 45.5826 81.6953 50.2512 75.8164 50.2512Z" fill="#1B2735"/>
<path d="M57.1484 87.2361H42.9023V58.6934H57.1484V87.2361Z" fill="white"/>
<path d="M57.1484 64.515V62.7249H42.9023V64.515H57.1484Z" fill="white"/>
<path d="M68.5977 85.1275H31.4531C29.2812 85.1275 27.5195 83.4208 27.5195 81.3122V73.181C27.5195 71.0723 29.2812 69.3619 31.4531 69.3619H68.5977C70.7695 69.3619 72.5273 71.0723 72.5273 73.181V81.3122C72.5273 83.4208 70.7695 85.1275 68.5977 85.1275Z" fill="white"/>
<path d="M37.9141 36.7005C36.9102 36.7005 36.3516 37.8269 36.9727 38.5929C40.0078 42.3476 44.7266 44.7596 50.0234 44.7596C55.3242 44.7596 60.0391 42.3476 63.0781 38.5929C63.6992 37.8269 63.1367 36.7005 62.1328 36.7005H37.9141Z" fill="white"/>
<path d="M37.543 39.2604C40.582 42.6282 45.0469 44.7596 50.0234 44.7596C55 44.7596 59.4648 42.6282 62.5078 39.2604H37.543Z" fill="white"/>
<path d="M39.4883 24.022C39.4883 25.9031 37.9141 27.4315 35.9766 27.4315C34.0352 27.4315 32.4648 25.9031 32.4648 24.022C32.4648 22.1371 34.0352 20.6125 35.9766 20.6125C37.9141 20.6125 39.4883 22.1371 39.4883 24.022Z" fill="white"/>
<path d="M67.5859 24.022C67.5859 25.9031 66.0117 27.4315 64.0742 27.4315C62.1328 27.4315 60.5625 25.9031 60.5625 24.022C60.5625 22.1371 62.1328 20.6125 64.0742 20.6125C66.0117 20.6125 67.5859 22.1371 67.5859 24.022Z" fill="white"/>
<path d="M68.8906 83.9442H31.1562C29.1289 83.9442 27.4883 82.3476 27.4883 80.3792V71.4781C27.4883 69.5136 29.1289 67.9169 31.1562 67.9169H68.8906C70.918 67.9169 72.5625 69.5136 72.5625 71.4781V80.3792C72.5625 82.3476 70.918 83.9442 68.8906 83.9442Z" fill="white"/>
</svg>
