<svg width="719" height="473" viewBox="0 0 719 473" fill="none" xmlns="http://www.w3.org/2000/svg">
<path d="M98.6109 98.0021C94.4209 92.5731 88.4995 87.5498 88.1245 80.8505C87.7808 74.7061 92.3623 68.6055 90.4302 62.7271C88.9444 58.2073 84.043 55.48 79.2534 54.0358C70.0838 51.3106 60.2709 51.6883 51.3379 55.1105L51.8228 54.7686C46.3706 52.8265 39.9976 54.8314 35.708 58.5449C31.418 62.2584 28.8687 67.4057 26.8907 72.5638C24.9121 77.7219 23.3794 83.0688 20.6309 87.9046C17.8819 92.7404 13.6734 97.1381 8.12064 98.8094C9.97952 102.517 15.7906 103.789 19.1988 101.234C20.0694 100.527 20.852 99.7182 21.5298 98.8246C23.8028 96.0606 26.0759 93.2966 28.3492 90.5326C30.688 94.6924 27.1939 100.434 30.0689 104.285C31.5513 106.271 34.2588 107.025 36.7735 107.566C56.4274 111.759 76.8153 111.003 96.1045 105.365C97.6548 104.908 99.3653 104.279 100.008 102.876C100.751 101.256 99.7124 99.4297 98.6109 98.0021Z" fill="#2F2E41"/>
<path d="M154.338 119.189C154.216 119.728 154.136 120.277 154.099 120.829L111.142 145.611L100.7 139.6L89.5689 154.172L107.019 166.61C108.429 167.615 110.127 168.135 111.857 168.093C113.588 168.051 115.258 167.448 116.617 166.376L160.914 131.43C162.913 132.17 165.09 132.284 167.155 131.757C169.221 131.229 171.077 130.085 172.476 128.477C173.876 126.869 174.752 124.874 174.99 122.755C175.227 120.637 174.814 118.496 173.805 116.618C172.797 114.741 171.24 113.214 169.343 112.243C167.445 111.271 165.297 110.9 163.184 111.179C161.071 111.458 159.092 112.374 157.512 113.805C155.932 115.236 154.825 117.113 154.338 119.189Z" fill="#FFB7B7"/>
<path d="M109.705 146.785L95.8217 164.779C95.4266 165.291 94.9259 165.712 94.3535 166.013C93.7812 166.314 93.1507 166.488 92.505 166.523C91.8593 166.558 91.2136 166.454 90.6118 166.217C90.01 165.981 89.4663 165.617 89.0177 165.151L73.3004 148.83C70.6888 146.795 68.9912 143.808 68.5804 140.523C68.1696 137.237 69.079 133.924 71.1091 131.308C73.1392 128.693 76.1241 126.99 79.4084 126.574C82.6928 126.157 86.0083 127.061 88.6271 129.086L108.34 140.109C108.904 140.425 109.394 140.858 109.776 141.38C110.157 141.902 110.422 142.501 110.551 143.134C110.681 143.768 110.673 144.422 110.527 145.052C110.381 145.682 110.1 146.273 109.705 146.785H109.705Z" fill="#ADFF2F"/>
<path d="M90.598 460.309L102.858 460.308L108.69 413.02L90.596 413.021L90.598 460.309Z" fill="#FFB7B7"/>
<path d="M87.4705 456.306L111.614 456.305H111.615C115.696 456.305 119.61 457.926 122.495 460.812C125.38 463.697 127.002 467.61 127.002 471.691V472.191L87.4712 472.192L87.4705 456.306Z" fill="white"/>
<path d="M6.59795 460.309L18.858 460.308L24.69 413.02L6.59595 413.021L6.59795 460.309Z" fill="#FFB7B7"/>
<path d="M3.47046 456.306L27.6145 456.305H27.6155C31.6961 456.305 35.6096 457.926 38.495 460.812C41.3805 463.697 43.0017 467.61 43.002 471.691V472.191L3.47119 472.192L3.47046 456.306Z" fill="white"/>
<path d="M83.2352 91.3171C84.5121 79.6852 76.1177 69.2207 64.4858 67.9438C52.854 66.667 42.3894 75.0613 41.1125 86.6932C39.8357 98.325 48.2301 108.79 59.8619 110.066C71.4938 111.343 81.9584 102.949 83.2352 91.3171Z" fill="#FFB7B7"/>
<path d="M74.5712 120.768L87.0535 126.952C87.0535 126.952 101 151.189 93 174.189C89.1159 185.356 100.053 220.952 100.053 220.952C100.053 220.952 117 382.189 117.053 431.952C96 435.189 76 439.189 75 429.189C74 419.189 63.0535 300.952 63.0535 300.952C63.0535 300.952 48 432.189 36 434.189C24 436.189 0 433.189 0 433.189C0 433.189 19.0535 240.952 32.0535 228.952L34.0535 218.952L34 129.189L48.9776 122.041L74.5712 120.768Z" fill="#ADFF2F"/>
<path d="M29.9183 257.038C31.2996 256.291 32.5002 255.25 33.4356 253.988C34.3709 252.727 35.0183 251.275 35.3321 249.737C35.6458 248.198 35.6184 246.609 35.2517 245.082C34.8849 243.555 34.1878 242.126 33.2095 240.898L47.7262 144.136L28.7604 143.226L17.4443 239.587C15.4894 241.367 14.2555 243.803 13.9763 246.432C13.6972 249.062 14.3923 251.702 15.9299 253.853C17.4675 256.004 19.7408 257.517 22.3189 258.104C24.8971 258.691 27.601 258.312 29.9183 257.038V257.038Z" fill="#FFB7B7"/>
<path d="M47.3141 168.381L24.6318 166.949C23.9864 166.908 23.3574 166.729 22.7875 166.423C22.2177 166.117 21.7205 165.692 21.3298 165.177C20.939 164.662 20.6639 164.068 20.5232 163.437C20.3824 162.806 20.3794 162.152 20.5142 161.52L25.2405 139.359C25.4671 136.058 26.9937 132.981 29.4854 130.804C31.9772 128.627 35.2307 127.527 38.5325 127.745C41.8343 127.963 44.9148 129.482 47.0985 131.968C49.2821 134.454 50.3905 137.705 50.1808 141.007L52.0818 163.513C52.136 164.157 52.0508 164.805 51.8318 165.414C51.6128 166.022 51.2652 166.576 50.8128 167.038C50.3603 167.5 49.8136 167.86 49.2099 168.091C48.6061 168.323 47.9595 168.422 47.3142 168.381L47.3141 168.381Z" fill="#ADFF2F"/>
<path d="M674.196 76.6258H172.602C168.941 76.6258 165.429 78.0804 162.84 80.6695C160.251 83.2586 158.796 86.7702 158.796 90.4318V369.91C158.796 373.572 160.251 377.084 162.84 379.673C165.429 382.262 168.941 383.716 172.602 383.716H674.196C677.858 383.716 681.369 382.262 683.958 379.673C686.547 377.084 688.002 373.572 688.002 369.91V90.4318C688.002 86.7702 686.547 83.2586 683.958 80.6695C681.369 78.0804 677.858 76.6258 674.196 76.6258V76.6258Z" fill="white"/>
<path d="M669.492 101.025H177.306V378.668H669.492V101.025Z" fill="white"/>
<path d="M422.978 93.4527C425.766 93.4527 428.026 91.1926 428.026 88.4046C428.026 85.6167 425.766 83.3566 422.978 83.3566C420.19 83.3566 417.93 85.6167 417.93 88.4046C417.93 91.1926 420.19 93.4527 422.978 93.4527Z" fill="white"/>
<path d="M528.735 378.669H177.306V101.025L528.735 378.669Z" fill="#F2F2F2"/>
<path d="M701.821 373.62H653.787V370.159C653.787 369.978 653.715 369.803 653.586 369.674C653.458 369.546 653.283 369.473 653.101 369.473H636.632C636.542 369.473 636.453 369.491 636.369 369.526C636.286 369.56 636.21 369.611 636.147 369.674C636.083 369.738 636.032 369.814 635.998 369.897C635.963 369.98 635.946 370.069 635.946 370.159V373.62H625.653V370.159C625.653 370.069 625.635 369.98 625.601 369.897C625.566 369.814 625.516 369.738 625.452 369.674C625.388 369.611 625.313 369.56 625.229 369.526C625.146 369.491 625.057 369.473 624.967 369.473H608.498C608.408 369.473 608.318 369.491 608.235 369.526C608.152 369.56 608.076 369.611 608.013 369.674C607.949 369.738 607.898 369.814 607.864 369.897C607.829 369.98 607.812 370.069 607.812 370.159V370.159V373.62H597.519V370.159C597.519 370.069 597.501 369.98 597.466 369.897C597.432 369.814 597.381 369.738 597.318 369.674C597.254 369.611 597.178 369.56 597.095 369.526C597.012 369.491 596.923 369.473 596.832 369.473H580.363C580.273 369.473 580.184 369.491 580.101 369.526C580.018 369.56 579.942 369.611 579.878 369.674C579.815 369.738 579.764 369.814 579.729 369.897C579.695 369.98 579.677 370.069 579.677 370.159V370.159V373.62H569.384V370.159C569.384 370.069 569.367 369.98 569.332 369.897C569.298 369.814 569.247 369.738 569.183 369.674C569.12 369.611 569.044 369.56 568.961 369.526C568.877 369.491 568.788 369.473 568.698 369.473H552.229C552.139 369.473 552.05 369.491 551.967 369.526C551.883 369.56 551.808 369.611 551.744 369.674C551.68 369.738 551.63 369.814 551.595 369.897C551.561 369.98 551.543 370.069 551.543 370.159V373.62H541.25V370.159C541.25 370.069 541.232 369.98 541.198 369.897C541.163 369.814 541.113 369.738 541.049 369.674C540.985 369.611 540.91 369.56 540.826 369.526C540.743 369.491 540.654 369.473 540.564 369.473H524.095C524.005 369.473 523.916 369.491 523.832 369.526C523.749 369.56 523.673 369.611 523.61 369.674C523.546 369.738 523.495 369.814 523.461 369.897C523.426 369.98 523.409 370.069 523.409 370.159V370.159V373.62H513.116V370.159C513.116 370.069 513.098 369.98 513.063 369.897C513.029 369.814 512.978 369.738 512.915 369.674C512.851 369.611 512.775 369.56 512.692 369.526C512.609 369.491 512.52 369.473 512.429 369.473H495.961C495.87 369.473 495.781 369.491 495.698 369.526C495.615 369.56 495.539 369.611 495.475 369.674C495.412 369.738 495.361 369.814 495.327 369.897C495.292 369.98 495.274 370.069 495.274 370.159V370.159V373.62H484.981V370.159C484.981 370.069 484.964 369.98 484.929 369.897C484.895 369.814 484.844 369.738 484.78 369.674C484.717 369.611 484.641 369.56 484.558 369.526C484.474 369.491 484.385 369.473 484.295 369.473H355.289C355.199 369.473 355.11 369.491 355.026 369.526C354.943 369.56 354.867 369.611 354.804 369.674C354.74 369.738 354.69 369.814 354.655 369.897C354.621 369.98 354.603 370.069 354.603 370.159V370.159V373.62H344.31V370.159C344.31 370.069 344.292 369.98 344.258 369.897C344.223 369.814 344.172 369.738 344.109 369.674C344.045 369.611 343.969 369.56 343.886 369.526C343.803 369.491 343.714 369.473 343.624 369.473H327.155C327.065 369.473 326.975 369.491 326.892 369.526C326.809 369.56 326.733 369.611 326.669 369.674C326.606 369.738 326.555 369.814 326.521 369.897C326.486 369.98 326.469 370.069 326.469 370.159V370.159V373.62H316.175V370.159C316.175 370.069 316.158 369.98 316.123 369.897C316.089 369.814 316.038 369.738 315.974 369.674C315.911 369.611 315.835 369.56 315.752 369.526C315.669 369.491 315.579 369.473 315.489 369.473H299.02C298.93 369.473 298.841 369.491 298.758 369.526C298.675 369.56 298.599 369.611 298.535 369.674C298.471 369.738 298.421 369.814 298.386 369.897C298.352 369.98 298.334 370.069 298.334 370.159V370.159V373.62H288.041V370.159C288.041 370.069 288.023 369.98 287.989 369.897C287.954 369.814 287.904 369.738 287.84 369.674C287.776 369.611 287.701 369.56 287.617 369.526C287.534 369.491 287.445 369.473 287.355 369.473H270.886C270.796 369.473 270.707 369.491 270.623 369.526C270.54 369.56 270.465 369.611 270.401 369.674C270.337 369.738 270.287 369.814 270.252 369.897C270.218 369.98 270.2 370.069 270.2 370.159V370.159V373.62H259.907V370.159C259.907 370.069 259.889 369.98 259.855 369.897C259.82 369.814 259.77 369.738 259.706 369.674C259.642 369.611 259.567 369.56 259.483 369.526C259.4 369.491 259.311 369.473 259.221 369.473H242.752C242.662 369.473 242.572 369.491 242.489 369.526C242.406 369.56 242.33 369.611 242.267 369.674C242.203 369.738 242.152 369.814 242.118 369.897C242.083 369.98 242.066 370.069 242.066 370.159V370.159V373.62H231.772V370.159C231.772 370.069 231.755 369.98 231.72 369.897C231.686 369.814 231.635 369.738 231.572 369.674C231.508 369.611 231.432 369.56 231.349 369.526C231.266 369.491 231.176 369.473 231.086 369.473H214.617C214.435 369.473 214.261 369.546 214.132 369.674C214.004 369.803 213.931 369.977 213.931 370.159V373.62H203.638V370.159C203.638 370.069 203.62 369.98 203.586 369.897C203.552 369.814 203.501 369.738 203.437 369.674C203.374 369.611 203.298 369.56 203.215 369.526C203.131 369.491 203.042 369.473 202.952 369.473H186.483C186.301 369.473 186.127 369.546 185.998 369.674C185.869 369.803 185.797 369.977 185.797 370.159V373.62H154.232C152.069 373.62 149.927 374.046 147.929 374.874C145.931 375.702 144.116 376.915 142.586 378.444C141.057 379.973 139.844 381.789 139.016 383.787C138.189 385.785 137.763 387.927 137.763 390.089V397.536C137.763 401.904 139.498 406.093 142.586 409.181C145.675 412.27 149.864 414.005 154.232 414.005H701.821C706.189 414.005 710.378 412.27 713.467 409.181C716.555 406.093 718.29 401.904 718.29 397.536V390.089C718.29 387.927 717.864 385.785 717.037 383.787C716.209 381.789 714.996 379.973 713.467 378.444C711.937 376.915 710.122 375.702 708.124 374.874C706.126 374.046 703.984 373.62 701.821 373.62V373.62Z" fill="white"/>
<path d="M432.867 342.263C432.702 342.653 432.517 343.035 432.313 343.406C431.239 345.388 429.722 347.094 427.88 348.393C425.698 349.928 423.137 350.835 420.476 351.014C417.815 351.193 415.155 350.638 412.788 349.409C410.421 348.18 408.436 346.325 407.051 344.045C405.666 341.766 404.934 339.15 404.934 336.482V334.132H406.928C414.678 339.141 423.644 341.952 432.867 342.263Z" fill="#3F3D56"/>
<path d="M461.331 334.82V336.482C461.332 339.719 460.255 342.863 458.269 345.419C456.284 347.975 453.504 349.796 450.368 350.596C447.232 351.395 443.919 351.127 440.952 349.833C437.986 348.54 435.535 346.294 433.986 343.453C433.773 343.072 433.58 342.681 433.409 342.28C433.835 342.292 434.255 342.298 434.681 342.298C444.083 342.309 453.306 339.721 461.331 334.82V334.82Z" fill="#3F3D56"/>
<path d="M480.952 159.033C480.514 158.968 480.071 158.928 479.628 158.898C484.665 170.507 485.014 183.615 480.602 195.476C481.045 195.423 481.483 195.353 481.92 195.272C486.192 194.444 490.031 192.127 492.755 188.734C495.478 185.341 496.909 181.091 496.793 176.742C496.677 172.392 495.021 168.225 492.12 164.982C489.219 161.739 485.261 159.631 480.952 159.033V159.033Z" fill="#3F3D56"/>
<path d="M389.734 158.898C389.29 158.928 388.847 158.968 388.41 159.033C384.1 159.631 380.142 161.739 377.242 164.982C374.341 168.225 372.685 172.392 372.569 176.742C372.452 181.091 373.883 185.341 376.607 188.734C379.33 192.127 383.17 194.444 387.441 195.272C387.879 195.353 388.316 195.423 388.759 195.476C384.347 183.615 384.697 170.507 389.734 158.898V158.898Z" fill="#3F3D56"/>
<path d="M480.952 159.033C476.147 147.555 467.247 138.273 455.981 132.99C444.715 127.707 431.887 126.801 419.99 130.447C408.093 134.093 397.977 142.031 391.605 152.719C385.234 163.407 383.062 176.082 385.513 188.281C387.964 200.48 394.863 211.333 404.868 218.73C414.873 226.128 427.271 229.543 439.653 228.311C452.035 227.079 463.517 221.288 471.868 212.064C480.219 202.84 484.843 190.84 484.842 178.397C484.84 171.749 483.517 165.166 480.952 159.033ZM480.602 195.476C476.335 206.945 467.93 216.401 457.041 221.984C446.152 227.567 433.568 228.872 421.765 225.642C409.962 222.412 399.795 214.881 393.266 204.532C386.737 194.182 384.318 181.764 386.486 169.72C388.654 157.677 395.251 146.881 404.979 139.458C414.707 132.034 426.861 128.521 439.049 129.609C451.238 130.697 462.578 136.308 470.837 145.337C479.096 154.367 483.676 166.16 483.676 178.397C483.674 184.228 482.633 190.011 480.602 195.476V195.476Z" fill="#3F3D56"/>
<path d="M460.345 167.023H409.017C406.309 167.023 403.713 168.099 401.799 170.013C399.885 171.927 398.809 174.524 398.809 177.231C398.809 179.938 399.885 182.534 401.799 184.448C403.713 186.363 406.309 187.438 409.017 187.438H460.345C463.052 187.438 465.648 186.363 467.562 184.448C469.477 182.534 470.552 179.938 470.552 177.231C470.552 174.524 469.477 171.927 467.562 170.013C465.648 168.099 463.052 167.023 460.345 167.023V167.023Z" fill="#3F3D56"/>
<path d="M480.602 265.562C480.415 265.218 480.223 264.879 480.024 264.547C480.019 264.535 480.013 264.53 480.007 264.518C475.418 256.662 468.864 250.134 460.99 245.575C453.116 241.016 444.192 238.583 435.094 238.514C425.995 238.446 417.036 240.744 409.094 245.184C401.152 249.623 394.501 256.052 389.793 263.838C385.086 271.624 382.484 280.5 382.243 289.596C382.002 298.691 384.13 307.693 388.418 315.717C392.706 323.742 399.007 330.514 406.703 335.368C414.398 340.222 423.223 342.992 432.313 343.406C432.867 343.435 433.427 343.452 433.986 343.452C434.22 343.464 434.447 343.464 434.681 343.464C444.058 343.478 453.265 340.961 461.331 336.179C470.092 330.994 477.169 323.388 481.71 314.277C481.716 314.265 481.722 314.26 481.728 314.248C481.903 313.898 482.072 313.542 482.241 313.18C485.749 305.678 487.429 297.451 487.145 289.174C486.86 280.897 484.618 272.805 480.602 265.562H480.602ZM481.103 312.86C480.934 313.221 480.759 313.577 480.579 313.927C476.24 322.552 469.572 329.79 461.331 334.82C453.306 339.721 444.083 342.308 434.681 342.298C434.255 342.298 433.835 342.292 433.409 342.28C433.228 342.28 433.047 342.274 432.867 342.263C423.961 341.951 415.29 339.327 407.706 334.647C400.123 329.968 393.888 323.395 389.616 315.574C385.344 307.754 383.181 298.956 383.341 290.047C383.501 281.137 385.978 272.422 390.528 264.761C395.078 257.099 401.544 250.753 409.291 246.349C417.037 241.944 425.797 239.633 434.708 239.641C443.619 239.65 452.375 241.978 460.113 246.397C467.851 250.816 474.305 257.174 478.84 264.845C478.846 264.856 478.852 264.862 478.858 264.874C479.062 265.206 479.26 265.544 479.447 265.883C483.45 273.013 485.689 280.998 485.977 289.17C486.265 297.342 484.594 305.465 481.103 312.86Z" fill="#3F3D56"/>
<path d="M475.026 267.113C474.004 266.385 472.781 265.992 471.526 265.988H448.586C446.988 265.988 445.455 266.623 444.325 267.753C443.195 268.883 442.561 270.415 442.561 272.013C442.561 273.611 443.195 275.144 444.325 276.274C445.455 277.403 446.988 278.038 448.586 278.038H471.526C471.936 278.039 472.344 277.998 472.745 277.916C473.144 277.83 473.535 277.707 473.912 277.548C474.892 277.126 475.743 276.45 476.377 275.59C477.01 274.731 477.404 273.718 477.517 272.656C477.631 271.595 477.46 270.522 477.022 269.548C476.584 268.574 475.895 267.734 475.026 267.114L475.026 267.113Z" fill="#3F3D56"/>
<path d="M450.113 275.072C451.803 275.072 453.172 273.702 453.172 272.013C453.172 270.323 451.803 268.954 450.113 268.954C448.424 268.954 447.054 270.323 447.054 272.013C447.054 273.702 448.424 275.072 450.113 275.072Z" fill="#F1F1F1"/>
<path d="M460.055 275.072C461.744 275.072 463.114 273.702 463.114 272.013C463.114 270.323 461.744 268.954 460.055 268.954C458.365 268.954 456.996 270.323 456.996 272.013C456.996 273.702 458.365 275.072 460.055 275.072Z" fill="#F1F1F1"/>
<path d="M469.996 275.072C471.686 275.072 473.055 273.702 473.055 272.013C473.055 270.323 471.686 268.954 469.996 268.954C468.307 268.954 466.937 270.323 466.937 272.013C466.937 273.702 468.307 275.072 469.996 275.072Z" fill="#ADFF2F"/>
<path d="M585.207 171.195C577.252 175.966 563.079 181.944 548.596 175.8L539.233 171.829L557.995 150.798C543.023 134.29 534.741 112.796 534.763 90.5107C534.786 68.2253 543.113 46.7483 558.118 30.2715C573.123 13.7948 593.73 3.50104 615.916 1.39949C638.102 -0.702058 660.275 5.53944 678.107 18.9057C695.939 32.272 708.15 51.8037 712.357 73.6884C716.564 95.5731 712.464 118.24 700.859 137.265C689.253 156.29 670.974 170.307 649.59 176.581C628.206 182.854 605.251 180.934 585.207 171.195V171.195Z" fill="white"/>
<path d="M585.256 172.328C577.612 176.816 563.051 183.018 548.205 176.721L537.558 172.204L556.653 150.8C544.772 137.436 537.111 120.856 534.636 103.147C532.16 85.4382 534.98 67.3927 542.74 51.2831C550.5 35.1735 562.853 21.7204 578.244 12.6179C593.635 3.51538 611.375 -0.829389 629.23 0.130737C647.086 1.09086 664.258 7.31295 678.584 18.0134C692.91 28.7138 703.749 43.4142 709.737 60.263C715.725 77.1118 716.593 95.3556 712.233 112.697C707.872 130.038 698.478 145.702 685.233 157.714V157.714C671.931 169.852 655.3 177.73 637.482 180.334C619.665 182.939 601.475 180.15 585.256 172.328H585.256ZM689.996 31.079C682.18 22.4569 672.742 15.459 662.221 10.4849C651.701 5.51085 640.303 2.65804 628.68 2.08942C617.056 1.52079 605.435 3.24751 594.479 7.17094C583.523 11.0944 573.447 17.1377 564.827 24.9557C556.207 32.7737 549.211 42.2132 544.24 52.7351C539.269 63.2571 536.419 74.6554 535.853 86.2789C535.287 97.9024 537.017 109.524 540.943 120.479C544.869 131.434 550.915 141.508 558.735 150.126L559.34 150.792L540.908 171.453L548.986 174.88C563.324 180.962 577.511 174.644 584.693 170.337L585.157 170.059L585.644 170.295C604.155 179.29 625.221 181.56 645.223 176.715C665.226 171.87 682.918 160.212 695.262 143.744C707.606 127.276 713.832 107.024 712.871 86.4654C711.91 65.9067 703.822 46.324 689.996 31.079L689.996 31.079Z" fill="#ADFF2F"/>
<path opacity="0.1" d="M700.009 90.0439C700.008 69.4373 692.291 49.5779 678.378 34.3767C664.466 19.1754 645.366 9.73406 624.84 7.91188C627.242 7.70148 629.672 7.58765 632.128 7.58765C653.988 7.60083 674.949 16.294 690.401 31.7561C705.854 47.2182 714.535 68.1838 714.535 90.0439C714.535 111.904 705.854 132.87 690.401 148.332C674.949 163.794 653.988 172.487 632.128 172.5C629.675 172.5 627.25 172.385 624.852 172.175C645.376 170.35 664.472 160.908 678.382 145.707C692.292 130.506 700.008 110.649 700.009 90.0439Z" fill="black"/>
<path d="M636.001 73.6011H577.082V79.0726H636.001V73.6011Z" fill="#ADFF2F"/>
<path d="M679.774 92.5289H577.082V98.0004H679.774V92.5289Z" fill="#ADFF2F"/>
<path d="M679.673 111.457H577.082V116.928H679.673V111.457Z" fill="#ADFF2F"/>
<path d="M84.3804 75.2322C83.5547 71.4868 80.8731 68.3837 77.7837 66.111C72.6909 62.3647 66.4455 60.523 60.1348 60.9068C53.8242 61.2906 47.8479 63.8754 43.2466 68.2112C40.6756 70.4821 38.822 73.4529 37.9126 76.7604C37.4788 78.4136 37.4557 80.1477 37.8452 81.8118C38.2347 83.476 39.0251 85.0197 40.1475 86.3085L40.5708 86.5737C40.187 84.9457 41.4517 83.3189 42.9624 82.6007C44.5336 82.024 46.1738 81.6563 47.8408 81.5069C50.363 81.0302 52.7535 80.0177 54.8507 78.5378C56.948 77.0579 58.7031 75.145 59.9976 72.9285C60.9567 75.6565 62.4888 78.1476 64.491 80.2341C66.4931 82.3206 68.9188 83.9542 71.605 85.0251C74.4053 86.1202 82.0967 87.6261 84.7627 86.2357C88.1636 84.4624 85.2061 78.9776 84.3804 75.2322Z" fill="#2F2E41"/>
</svg>
