<svg width="151" height="151" viewBox="0 0 151 151" fill="none" xmlns="http://www.w3.org/2000/svg">
<path d="M150.012 75.0039C150.012 33.582 116.43 0 75.0039 0C33.582 0 0 33.582 0 75.0039C0 99.6523 11.8867 121.52 30.2422 135.191C31.7148 130.668 35.9648 127.398 40.9844 127.398H109.145C114.137 127.398 118.367 130.637 119.863 135.125C138.164 121.449 150.012 99.6094 150.012 75.0039Z" fill="black"/>
<path d="M109.145 127.398H40.9844C35.9648 127.398 31.7148 130.668 30.2422 135.191C42.7344 144.5 58.2266 150.012 75.0039 150.012C91.8242 150.012 107.352 144.477 119.863 135.125C118.367 130.637 114.137 127.398 109.145 127.398Z" fill="#ADFF2F"/>
<path d="M54.1914 56.3711H47.5391V26.1328H54.1914V56.3711Z" fill="#ADFF2F"/>
<path d="M47.5391 27.5508V34.918C48.5391 35.4219 49.668 35.7148 50.8633 35.7148C52.0625 35.7148 53.1875 35.4219 54.1914 34.918V27.5508H47.5391Z" fill="#E4F1F9"/>
<path d="M59.0312 26.1328C59.0312 30.6445 55.375 34.2969 50.8672 34.2969C46.3594 34.2969 42.7031 30.6445 42.7031 26.1328C42.7031 21.625 46.3594 17.9727 50.8672 17.9727C55.375 17.9727 59.0312 21.625 59.0312 26.1328Z" fill="#E4F1F9"/>
<path d="M58.2734 26.8906C58.2734 30.9805 54.957 34.2969 50.8672 34.2969C46.7734 34.2969 43.457 30.9805 43.457 26.8906C43.457 22.8008 46.7734 19.4844 50.8672 19.4844C54.957 19.4844 58.2734 22.8008 58.2734 26.8906Z" fill="#ADFF2F"/>
<path d="M53.2852 26.1328C53.2852 27.4688 52.2031 28.5547 50.8672 28.5547C49.5312 28.5547 48.4492 27.4688 48.4492 26.1328C48.4492 24.7969 49.5312 23.7148 50.8672 23.7148C52.2031 23.7148 53.2852 24.7969 53.2852 26.1328Z" fill="black"/>
<path d="M102.422 56.3711H95.7734V26.1328H102.422V56.3711Z" fill="#ADFF2F"/>
<path d="M95.7695 27.5508V34.918C96.7695 35.4219 97.8984 35.7148 99.0977 35.7148C100.293 35.7148 101.422 35.4219 102.422 34.918V27.5508H95.7695Z" fill="#E4F1F9"/>
<path d="M107.262 26.1328C107.262 30.6445 103.605 34.2969 99.0977 34.2969C94.5898 34.2969 90.9336 30.6445 90.9336 26.1328C90.9336 21.625 94.5898 17.9727 99.0977 17.9727C103.605 17.9727 107.262 21.625 107.262 26.1328Z" fill="#E4F1F9"/>
<path d="M106.504 26.8906C106.504 30.9805 103.187 34.2969 99.0977 34.2969C95.0078 34.2969 91.6914 30.9805 91.6914 26.8906C91.6914 22.8008 95.0078 19.4844 99.0977 19.4844C103.187 19.4844 106.504 22.8008 106.504 26.8906Z" fill="#ADFF2F"/>
<path d="M101.516 26.1328C101.516 27.4688 100.434 28.5547 99.0977 28.5547C97.7617 28.5547 96.6797 27.4688 96.6797 26.1328C96.6797 24.7969 97.7617 23.7148 99.0977 23.7148C100.434 23.7148 101.516 24.7969 101.516 26.1328Z" fill="black"/>
<path d="M31.3086 74.2695H118.703C122.164 74.2695 124.973 77.0742 124.973 80.5352V89.2031C124.973 92.6641 122.164 95.4688 118.703 95.4688H31.3086C27.8437 95.4688 25.0391 92.6641 25.0391 89.2031V80.5352C25.0391 77.0742 27.8437 74.2695 31.3086 74.2695Z" fill="#ADFF2F"/>
<path d="M106.203 51.8906H43.9219C36.1719 51.8906 29.8867 58.1758 29.8867 65.9297V102.461C29.8867 110.215 36.1719 116.5 43.9219 116.5H106.203C113.957 116.5 120.242 110.215 120.242 102.461V65.9297C120.242 58.1758 113.957 51.8906 106.203 51.8906Z" fill="#ADFF2F"/>
<path d="M100.855 103.648H49.2695C43.3906 103.648 38.582 98.8398 38.582 92.9609V75.5898C38.582 69.7109 43.3906 64.8984 49.2695 64.8984H100.855C106.734 64.8984 111.547 69.7109 111.547 75.5898V92.9609C111.547 98.8398 106.734 103.648 100.855 103.648Z" fill="black"/>
<path d="M82.1875 141.742H67.9414V112.344H82.1875V141.742Z" fill="#ADFF2F"/>
<path d="M82.1875 118.34V116.496H67.9414V118.34H82.1875Z" fill="#E4F1F9"/>
<path d="M93.6367 139.57H56.4922C54.3203 139.57 52.5586 137.812 52.5586 135.641V127.266C52.5586 125.094 54.3203 123.332 56.4922 123.332H93.6367C95.8086 123.332 97.5664 125.094 97.5664 127.266V135.641C97.5664 137.812 95.8086 139.57 93.6367 139.57Z" fill="#E4F1F9"/>
<path d="M62.9531 89.6914C61.9492 89.6914 61.3906 90.8516 62.0117 91.6406C65.0469 95.5078 69.7656 97.9922 75.0625 97.9922C80.3633 97.9922 85.0781 95.5078 88.1172 91.6406C88.7383 90.8516 88.1758 89.6914 87.1719 89.6914H62.9531Z" fill="#E4F1F9"/>
<path d="M62.582 92.3281C65.6211 95.7969 70.0859 97.9922 75.0625 97.9922C80.0391 97.9922 84.5039 95.7969 87.5469 92.3281H62.582Z" fill="#ADFF2F"/>
<path d="M64.5273 76.6328C64.5273 78.5703 62.9531 80.1445 61.0156 80.1445C59.0742 80.1445 57.5039 78.5703 57.5039 76.6328C57.5039 74.6914 59.0742 73.1211 61.0156 73.1211C62.9531 73.1211 64.5273 74.6914 64.5273 76.6328Z" fill="#ADFF2F"/>
<path d="M92.625 76.6328C92.625 78.5703 91.0508 80.1445 89.1133 80.1445C87.1719 80.1445 85.6016 78.5703 85.6016 76.6328C85.6016 74.6914 87.1719 73.1211 89.1133 73.1211C91.0508 73.1211 92.625 74.6914 92.625 76.6328Z" fill="#ADFF2F"/>
<path d="M93.9297 138.352H56.1953C54.168 138.352 52.5273 136.707 52.5273 134.68V125.512C52.5273 123.488 54.168 121.844 56.1953 121.844H93.9297C95.957 121.844 97.6016 123.488 97.6016 125.512V134.68C97.6016 136.707 95.957 138.352 93.9297 138.352Z" fill="#ADFF2F"/>
</svg>
