<svg width="113" height="129" viewBox="0 0 113 129" fill="none" xmlns="http://www.w3.org/2000/svg">
<path d="M84.1055 106.241H15.9453C10.9258 106.241 6.67578 109.415 5.20312 113.807C17.6953 122.844 33.1875 128.196 49.9648 128.196C66.7852 128.196 82.3125 122.822 94.8242 113.742C93.3281 109.385 89.0977 106.241 84.1055 106.241Z" fill="#ADFF2F"/>
<path d="M29.1523 37.2807H22.5V7.92263H29.1523V37.2807Z" fill="#ADFF2F"/>
<path d="M22.5 9.29932V16.4521C23.5 16.9413 24.6289 17.2257 25.8242 17.2257C27.0234 17.2257 28.1484 16.9413 29.1523 16.4521V9.29932H22.5Z" fill="#E4F1F9"/>
<path d="M33.9922 7.92263C33.9922 12.303 30.3359 15.849 25.8281 15.849C21.3203 15.849 17.6641 12.303 17.6641 7.92263C17.6641 3.54603 21.3203 0 25.8281 0C30.3359 0 33.9922 3.54603 33.9922 7.92263Z" fill="#E4F1F9"/>
<path d="M33.2344 8.65838C33.2344 12.6292 29.918 15.849 25.8281 15.849C21.7344 15.849 18.418 12.6292 18.418 8.65838C18.418 4.68759 21.7344 1.46772 25.8281 1.46772C29.918 1.46772 33.2344 4.68759 33.2344 8.65838Z" fill="#ADFF2F"/>
<path d="M28.2461 7.92263C28.2461 9.21968 27.1641 10.274 25.8281 10.274C24.4922 10.274 23.4102 9.21968 23.4102 7.92263C23.4102 6.62558 24.4922 5.57504 25.8281 5.57504C27.1641 5.57504 28.2461 6.62558 28.2461 7.92263Z" fill="black"/>
<path d="M77.3828 37.2807H70.7344V7.92263H77.3828V37.2807Z" fill="#ADFF2F"/>
<path d="M70.7305 9.29932V16.4521C71.7305 16.9413 72.8594 17.2257 74.0586 17.2257C75.2539 17.2257 76.3828 16.9413 77.3828 16.4521V9.29932H70.7305Z" fill="#E4F1F9"/>
<path d="M82.2227 7.92263C82.2227 12.303 78.5664 15.849 74.0586 15.849C69.5508 15.849 65.8945 12.303 65.8945 7.92263C65.8945 3.54603 69.5508 0 74.0586 0C78.5664 0 82.2227 3.54603 82.2227 7.92263Z" fill="#E4F1F9"/>
<path d="M81.4648 8.65838C81.4648 12.6292 78.1484 15.849 74.0586 15.849C69.9687 15.849 66.6523 12.6292 66.6523 8.65838C66.6523 4.68759 69.9687 1.46772 74.0586 1.46772C78.1484 1.46772 81.4648 4.68759 81.4648 8.65838Z" fill="#ADFF2F"/>
<path d="M76.4766 7.92263C76.4766 9.21968 75.3945 10.274 74.0586 10.274C72.7227 10.274 71.6406 9.21968 71.6406 7.92263C71.6406 6.62558 72.7227 5.57504 74.0586 5.57504C75.3945 5.57504 76.4766 6.62558 76.4766 7.92263Z" fill="black"/>
<path d="M6.26953 54.6582H93.6641C97.125 54.6582 99.9336 57.3812 99.9336 60.7414V69.1571C99.9336 72.5173 97.125 75.2403 93.6641 75.2403H6.26953C2.80469 75.2403 0 72.5173 0 69.1571V60.7414C0 57.3812 2.80469 54.6582 6.26953 54.6582Z" fill="#ADFF2F"/>
<path d="M81.1641 32.9307H18.8828C11.1328 32.9307 4.84766 39.0329 4.84766 46.5611V82.029C4.84766 89.5572 11.1328 95.6594 18.8828 95.6594H81.1641C88.918 95.6594 95.2031 89.5572 95.2031 82.029V46.5611C95.2031 39.0329 88.918 32.9307 81.1641 32.9307Z" fill="#ADFF2F"/>
<path d="M75.8164 83.1819H24.2305C18.3516 83.1819 13.543 78.5133 13.543 72.8055V55.9401C13.543 50.2323 18.3516 45.5599 24.2305 45.5599H75.8164C81.6953 45.5599 86.5078 50.2323 86.5078 55.9401V72.8055C86.5078 78.5133 81.6953 83.1819 75.8164 83.1819Z" fill="black"/>
<path d="M57.1484 120.167H42.9023V91.6241H57.1484V120.167Z" fill="#ADFF2F"/>
<path d="M57.1484 97.4457V95.6556H42.9023V97.4457H57.1484Z" fill="#E4F1F9"/>
<path d="M68.5977 118.058H31.4531C29.2812 118.058 27.5195 116.352 27.5195 114.243V106.112C27.5195 104.003 29.2812 102.293 31.4531 102.293H68.5977C70.7695 102.293 72.5273 104.003 72.5273 106.112V114.243C72.5273 116.352 70.7695 118.058 68.5977 118.058Z" fill="#E4F1F9"/>
<path d="M37.9141 69.6311C36.9102 69.6311 36.3516 70.7575 36.9727 71.5236C40.0078 75.2782 44.7266 77.6903 50.0234 77.6903C55.3242 77.6903 60.0391 75.2782 63.0781 71.5236C63.6992 70.7575 63.1367 69.6311 62.1328 69.6311H37.9141Z" fill="#E4F1F9"/>
<path d="M37.543 72.1911C40.582 75.5589 45.0469 77.6903 50.0234 77.6903C55 77.6903 59.4648 75.5589 62.5078 72.1911H37.543Z" fill="#ADFF2F"/>
<path d="M39.4883 56.9527C39.4883 58.8338 37.9141 60.3622 35.9766 60.3622C34.0352 60.3622 32.4648 58.8338 32.4648 56.9527C32.4648 55.0678 34.0352 53.5432 35.9766 53.5432C37.9141 53.5432 39.4883 55.0678 39.4883 56.9527Z" fill="#ADFF2F"/>
<path d="M67.5859 56.9527C67.5859 58.8338 66.0117 60.3622 64.0742 60.3622C62.1328 60.3622 60.5625 58.8338 60.5625 56.9527C60.5625 55.0678 62.1328 53.5432 64.0742 53.5432C66.0117 53.5432 67.5859 55.0678 67.5859 56.9527Z" fill="#ADFF2F"/>
<path d="M68.8906 116.875H31.1562C29.1289 116.875 27.4883 115.278 27.4883 113.31V104.409C27.4883 102.444 29.1289 100.848 31.1562 100.848H68.8906C70.918 100.848 72.5625 102.444 72.5625 104.409V113.31C72.5625 115.278 70.918 116.875 68.8906 116.875Z" fill="#ADFF2F"/>
<path d="M94.5 83L76 90.6359V102.091C76 112.696 83.8821 122.586 94.5 125C105.116 122.586 113 112.696 113 102.091V90.6359L94.5 83ZM90.3877 113.545L82.1667 105.909L85.0745 103.209L90.3877 108.142L103.924 95.571L106.833 98.2735L90.3877 113.545Z" fill="white"/>
</svg>
