<svg width="732" height="715" viewBox="0 0 732 715" fill="none" xmlns="http://www.w3.org/2000/svg">
<path d="M213.332 713.732L254.788 713.73V713.275C254.788 709.556 253.087 705.991 250.061 703.361C247.035 700.732 242.931 699.255 238.652 699.255H238.651L231.079 694.263L216.95 699.256L213.332 699.256L213.332 713.732Z" fill="#2F2E41"/>
<path d="M340.663 714.667L1.4861 715C1.09196 715 0.713989 714.864 0.435288 714.622C0.156587 714.38 0 714.051 0 713.709C0 713.366 0.156587 713.038 0.435288 712.796C0.713989 712.553 1.09196 712.417 1.4861 712.417L340.663 712.084C341.057 712.084 341.435 712.22 341.713 712.462C341.992 712.704 342.149 713.033 342.149 713.375C342.149 713.718 341.992 714.046 341.713 714.289C341.435 714.531 341.057 714.667 340.663 714.667Z" fill="#CACACA"/>
<path d="M414.978 550.919C590.064 550.919 732 427.592 732 275.46C732 123.328 590.064 0 414.978 0C239.891 0 97.9554 123.328 97.9554 275.46C97.9554 427.592 239.891 550.919 414.978 550.919Z" fill="#F2F2F2"/>
<path d="M622.147 123.185H41.4057C40.816 123.174 40.2547 122.963 39.842 122.597C39.4294 122.231 39.1984 121.738 39.1984 121.226C39.1984 120.713 39.4294 120.221 39.842 119.855C40.2547 119.489 40.816 119.278 41.4057 119.267H622.147C622.737 119.278 623.298 119.489 623.711 119.855C624.123 120.221 624.354 120.713 624.354 121.226C624.354 121.738 624.123 122.231 623.711 122.597C623.298 122.963 622.737 123.174 622.147 123.185V123.185Z" fill="#CACACA"/>
<path d="M80.0029 109.263C87.3011 109.263 93.2174 104.008 93.2174 97.5253C93.2174 91.0427 87.3011 85.7874 80.0029 85.7874C72.7048 85.7874 66.7885 91.0427 66.7885 97.5253C66.7885 104.008 72.7048 109.263 80.0029 109.263Z" fill="#ADFF2F"/>
<path d="M125.653 109.263C132.951 109.263 138.867 104.008 138.867 97.5253C138.867 91.0427 132.951 85.7874 125.653 85.7874C118.355 85.7874 112.438 91.0427 112.438 97.5253C112.438 104.008 118.355 109.263 125.653 109.263Z" fill="#ADFF2F"/>
<path d="M171.303 109.263C178.601 109.263 184.517 104.008 184.517 97.5253C184.517 91.0427 178.601 85.7874 171.303 85.7874C164.005 85.7874 158.088 91.0427 158.088 97.5253C158.088 104.008 164.005 109.263 171.303 109.263Z" fill="#ADFF2F"/>
<path d="M594.662 88.6968H562.234C561.592 88.7078 560.979 88.9375 560.529 89.3364C560.079 89.7353 559.827 90.2716 559.827 90.8302C559.827 91.3888 560.079 91.9252 560.529 92.3241C560.979 92.723 561.592 92.9526 562.234 92.9637H594.662C595.305 92.9526 595.917 92.723 596.367 92.3241C596.817 91.9252 597.069 91.3888 597.069 90.8302C597.069 90.2716 596.817 89.7353 596.367 89.3364C595.917 88.9375 595.305 88.7078 594.662 88.6968V88.6968Z" fill="#3F3D56"/>
<path d="M594.662 96.7051H562.234C561.592 96.7161 560.979 96.9457 560.529 97.3446C560.079 97.7435 559.827 98.2799 559.827 98.8385C559.827 99.3971 560.079 99.9334 560.529 100.332C560.979 100.731 561.592 100.961 562.234 100.972H594.662C595.305 100.961 595.917 100.731 596.367 100.332C596.817 99.9334 597.069 99.3971 597.069 98.8385C597.069 98.2799 596.817 97.7435 596.367 97.3446C595.917 96.9457 595.305 96.7161 594.662 96.7051V96.7051Z" fill="#3F3D56"/>
<path d="M594.662 104.703H562.234C561.592 104.714 560.979 104.943 560.529 105.342C560.079 105.741 559.827 106.278 559.827 106.836C559.827 107.395 560.079 107.931 560.529 108.33C560.979 108.729 561.592 108.959 562.234 108.97H594.662C595.305 108.959 595.917 108.729 596.367 108.33C596.817 107.931 597.069 107.395 597.069 106.836C597.069 106.278 596.817 105.741 596.367 105.342C595.917 104.943 595.305 104.714 594.662 104.703V104.703Z" fill="#3F3D56"/>
<path d="M424.231 189.213H263.692C251.634 189.213 241.858 197.707 241.858 208.184V208.184C241.858 218.662 251.634 227.156 263.692 227.156H424.231C436.29 227.156 446.065 218.662 446.065 208.184C446.065 197.707 436.29 189.213 424.231 189.213Z" fill="white"/>
<path d="M527.941 265.098H159.982C147.924 265.098 138.149 273.591 138.149 284.069V284.069C138.149 294.546 147.924 303.04 159.982 303.04H527.941C539.999 303.04 549.775 294.546 549.775 284.069C549.775 273.591 539.999 265.098 527.941 265.098Z" fill="white"/>
<path d="M527.941 340.982H159.982C147.924 340.982 138.149 349.476 138.149 359.954V359.954C138.149 370.431 147.924 378.925 159.982 378.925H527.941C539.999 378.925 549.775 370.431 549.775 359.954C549.775 349.476 539.999 340.982 527.941 340.982Z" fill="white"/>
<path d="M213.808 701.512L227.288 701.511L233.702 656.329L213.804 656.331L213.808 701.512Z" fill="#FBBEBE"/>
<path d="M105.772 669.069L116.554 676.098L152.891 643.302L136.975 632.927L105.772 669.069Z" fill="#FBBEBE"/>
<path d="M96.9518 678.596L130.113 700.212L130.428 699.847C132.996 696.873 134.099 693.134 133.494 689.453C132.89 685.772 130.627 682.45 127.204 680.219L127.203 680.218L124.594 672.277L109.844 668.903L106.949 667.016L96.9518 678.596Z" fill="#2F2E41"/>
<path d="M150.584 489.486C150.584 489.486 151.328 507.125 152.267 521.27C152.42 523.59 146.165 526.11 146.327 528.633C146.435 530.308 147.611 531.936 147.72 533.681C147.835 535.524 146.212 537.155 146.327 539.06C146.44 540.922 148.292 543.057 148.404 544.963C149.606 565.47 153.964 590.019 149.6 596.882C147.45 600.264 120.038 647.12 120.038 647.12C120.038 647.12 135.311 667.026 139.675 660.391C145.438 651.627 189.857 610.626 189.857 602.797C189.857 594.977 200.133 536.368 200.133 536.368L207.298 571.052L210.584 577.924L209.552 581.958L211.675 587.403L211.79 592.791L213.857 602.797C213.857 602.797 207.639 680.751 211.14 682.922C214.653 685.102 231.661 689.017 233.668 685.102C235.664 681.187 248.659 603.744 248.659 603.744C248.659 603.744 250.753 568.255 253.022 535.269C253.153 533.354 254.702 531.041 254.822 529.155C254.964 526.965 253.982 524.122 254.113 521.998C254.255 519.562 255.499 517.847 255.619 515.515C256.546 497.495 251.34 475.552 249.682 473.391C244.675 466.87 240.17 461.656 240.17 461.656C240.17 461.656 172.727 442.402 154.705 461.967L150.584 489.486Z" fill="#ADFF2F"/>
<path d="M217.849 308.107L191.113 303.461L178.636 318.174C155.356 338.064 155.005 355.618 159.161 383.757V423.249L156.153 449.723C156.153 449.723 145.504 469.076 156.487 473.582C167.47 478.088 239.61 477.704 246.498 475.905C253.386 474.106 247.415 471.898 245.607 463.515C242.209 447.769 244.482 455.365 244.716 450.351C248.068 378.435 240.26 348.911 239.467 341.15L225.87 319.722L217.849 308.107Z" fill="#3F3D56"/>
<path d="M358.763 366.091C358.026 367.306 356.99 368.365 355.731 369.194C354.471 370.023 353.018 370.602 351.473 370.89C349.928 371.179 348.329 371.169 346.788 370.862C345.248 370.556 343.804 369.959 342.558 369.115L284.819 400.97L284.986 383.626L341.074 355.344C342.845 353.619 345.283 352.518 347.925 352.251C350.568 351.983 353.232 352.566 355.412 353.891C357.593 355.216 359.138 357.189 359.756 359.438C360.373 361.687 360.02 364.054 358.763 366.091Z" fill="#FBBEBE"/>
<path d="M196.739 328.192L190.166 327.587C187.18 327.318 184.165 327.725 181.413 328.768C178.662 329.812 176.269 331.456 174.465 333.542C173.061 335.151 172.052 336.993 171.501 338.955L171.497 338.971C170.691 341.859 170.883 344.89 172.051 347.684C173.218 350.477 175.308 352.91 178.06 354.676L200.764 369.22C216.696 387.926 246.64 400.336 281.764 410.419L336.361 380.957L317.05 360.636L279.602 378.074L223.938 340.633L223.906 340.611L202.72 328.751L196.739 328.192Z" fill="#3F3D56"/>
<path d="M208.815 296.699C226.034 296.699 239.993 284.571 239.993 269.609C239.993 254.648 226.034 242.519 208.815 242.519C191.596 242.519 177.637 254.648 177.637 269.609C177.637 284.571 191.596 296.699 208.815 296.699Z" fill="#FBBEBE"/>
<path d="M209.535 296.705C209.284 296.713 209.032 296.717 208.78 296.723C208.673 296.966 208.556 297.207 208.422 297.443L209.535 296.705Z" fill="#2F2E41"/>
<path d="M218.092 270.361C218.141 270.628 218.216 270.89 218.315 271.146C218.274 270.878 218.199 270.615 218.092 270.361V270.361Z" fill="#2F2E41"/>
<path d="M240.391 243.678C239.107 247.14 237.962 242.748 233.74 243.538C228.662 244.489 222.752 244.162 218.593 241.458C215.54 239.511 211.991 238.236 208.247 237.74C204.504 237.244 200.678 237.543 197.097 238.611C189.98 240.798 178.059 242.341 176.204 248.698C175.56 250.908 175.304 253.307 173.741 255.138C172.376 256.74 170.22 257.653 168.417 258.885C162.329 263.047 166.982 274.87 169.863 281.118C172.744 287.365 179.353 291.916 186.62 294.247C193.65 296.503 201.28 296.901 208.78 296.723C210.085 293.784 209.521 290.388 208.445 287.341C207.28 284.042 205.554 280.858 205.068 277.433C204.581 274.008 205.65 270.118 208.955 268.204C211.993 266.445 216.936 267.517 218.092 270.361C217.417 266.805 221.562 263.365 225.836 262.76C230.425 262.11 235.014 263.55 239.589 264.266C244.165 264.983 242.541 248.245 240.391 243.678Z" fill="#2F2E41"/>
<path d="M351.174 365.288C386.412 365.288 414.978 340.468 414.978 309.849C414.978 279.231 386.412 254.41 351.174 254.41C315.936 254.41 287.37 279.231 287.37 309.849C287.37 340.468 315.936 365.288 351.174 365.288Z" fill="#ADFF2F"/>
<path d="M367.934 286.75L351.174 301.313L334.414 286.75C333.11 285.619 331.344 284.985 329.502 284.986C327.661 284.986 325.895 285.622 324.593 286.754C323.291 287.885 322.559 289.419 322.558 291.019C322.558 292.619 323.288 294.154 324.589 295.287L341.349 309.849L324.589 324.412C323.286 325.544 322.554 327.08 322.554 328.681C322.554 330.282 323.286 331.817 324.589 332.949C325.892 334.081 327.659 334.717 329.501 334.717C331.344 334.717 333.111 334.081 334.414 332.949L351.174 318.386L367.934 332.949C369.237 334.079 371.004 334.714 372.845 334.713C374.687 334.713 376.452 334.077 377.754 332.945C379.057 331.814 379.788 330.28 379.789 328.68C379.79 327.08 379.06 325.545 377.759 324.412L360.999 309.849L377.759 295.287C379.06 294.154 379.79 292.619 379.789 291.019C379.788 289.419 379.057 287.885 377.754 286.754C376.452 285.622 374.687 284.986 372.845 284.986C371.004 284.985 369.237 285.619 367.934 286.75V286.75Z" fill="white"/>
<path d="M326.031 263.253C326.529 264.556 326.692 265.938 326.508 267.302C326.325 268.665 325.8 269.978 324.969 271.146C324.139 272.314 323.024 273.31 321.703 274.064C320.382 274.817 318.887 275.31 317.323 275.507L303.805 333.762L289.517 321.65L304.86 266.903C304.653 264.599 305.426 262.308 307.033 260.466C308.64 258.623 310.969 257.357 313.579 256.907C316.189 256.457 318.898 256.855 321.193 258.024C323.487 259.194 325.209 261.054 326.031 263.253Z" fill="#FBBEBE"/>
<path d="M182.386 338.604L177.333 342.306C175.042 343.992 173.293 346.165 172.255 348.612C171.217 351.06 170.925 353.699 171.409 356.273C171.772 358.268 172.604 360.176 173.852 361.88L173.863 361.893C175.703 364.398 178.354 366.376 181.482 367.578C184.61 368.78 188.077 369.153 191.449 368.651L219.245 364.484C245.811 367.445 276.848 357.262 309.538 342.219L322.867 287.591L292.622 285.63L281.179 321.182L211.548 330.163L211.507 330.168L186.991 335.241L182.386 338.604Z" fill="#3F3D56"/>
<path opacity="0.1" d="M650.42 580.309C653.765 588.367 655.088 597.661 650.42 606.716L632.31 614.492C632.31 614.492 583.633 596.566 589.549 559.823C589.549 559.823 591.147 552.232 607.909 552.817C617.336 553.213 626.414 556.039 633.985 560.936C641.556 565.832 647.278 572.576 650.42 580.309V580.309Z" fill="white"/>
<path opacity="0.1" d="M631.074 483.725C630.512 470.841 638.563 466.373 645.215 464.952C642.289 462.498 638.511 460.954 634.469 460.56C629.838 463.927 626.557 468.483 625.096 473.574L608.121 545.465C608.121 545.465 632.023 505.317 631.074 483.725Z" fill="white"/>
<path d="M621.326 217.678C621.189 219.945 622.487 222.016 623.249 224.185C624.508 228.374 624.383 232.787 622.887 236.917C621.489 241.255 619.142 245.842 620.927 250.083C621.339 251.08 621.963 251.991 622.337 252.989C623.885 257.11 621.014 261.448 617.869 264.821L630.213 272.336C632.015 273.634 634.159 274.525 636.454 274.928C638.763 275.167 641.446 274.093 641.92 272.12C642.083 271.447 641.92 270.742 642.07 270.059C642.222 269.175 642.615 268.336 643.217 267.612C643.818 266.887 644.61 266.299 645.527 265.895C647.381 265.105 649.449 264.771 651.506 264.929C659.082 265.287 665.522 269.614 672.412 272.391C676.954 274.1 681.661 275.457 686.478 276.447C689.212 277.065 692.245 277.629 694.716 276.447C697.187 275.265 698.323 272.521 698.136 270.037C697.752 267.567 696.864 265.177 695.515 262.977C694.152 260.781 693.332 258.361 693.106 255.874C693.106 252.23 695.402 248.911 696.176 245.333C697.262 240.246 695.053 235.073 692.357 230.454C689.661 225.834 686.391 221.387 685.08 216.355C684.82 214.83 684.364 213.335 683.72 211.898C683.095 210.807 682.25 209.822 681.224 208.992C676.593 205.011 669.991 203.124 663.525 202.712C657.06 202.3 650.532 203.222 644.117 204.187C641.669 204.491 639.259 204.988 636.915 205.673C633.567 206.829 630.387 208.325 627.442 210.13C624.522 211.887 621.514 214.457 621.326 217.678Z" fill="#464353"/>
<g opacity="0.1">
<path opacity="0.1" d="M693.068 253.651C693.068 253.976 693.068 254.301 693.143 254.616C693.53 251.438 695.452 248.456 696.139 245.278C696.404 244.005 696.483 242.708 696.376 241.418C696.376 241.982 696.251 242.502 696.139 243.11C695.352 246.688 693.018 250.007 693.068 253.651Z" fill="black"/>
<path opacity="0.1" d="M624.085 228.523C624.232 226.329 623.949 224.128 623.248 222.016C622.51 220.371 621.905 218.682 621.439 216.962C621.439 217.19 621.339 217.407 621.326 217.635C621.189 219.901 622.487 221.973 623.248 224.142C623.731 225.567 624.011 227.039 624.085 228.523V228.523Z" fill="black"/>
<path opacity="0.1" d="M698.023 269.441C697.936 270.41 697.588 271.348 697.007 272.179C696.426 273.009 695.628 273.71 694.678 274.223C692.182 275.406 689.174 274.842 686.441 274.223C681.622 273.235 676.914 271.874 672.374 270.157C665.485 267.391 659.044 263.064 651.468 262.706C649.411 262.548 647.344 262.881 645.49 263.671C644.573 264.075 643.78 264.664 643.179 265.389C642.578 266.113 642.184 266.952 642.033 267.836C641.945 268.519 642.033 269.224 641.883 269.896C641.396 271.87 638.725 272.944 636.416 272.705C634.122 272.302 631.978 271.411 630.175 270.113L619.08 263.346C618.668 263.834 618.256 264.311 617.832 264.756L630.175 272.282C631.978 273.58 634.122 274.471 636.416 274.874C638.725 275.113 641.408 274.039 641.883 272.065C642.045 271.393 641.883 270.688 642.033 270.005C642.184 269.121 642.578 268.282 643.179 267.558C643.78 266.833 644.573 266.244 645.49 265.84C647.344 265.05 649.411 264.717 651.468 264.875C659.044 265.233 665.485 269.56 672.374 272.326C676.914 274.043 681.622 275.404 686.441 276.392C689.174 277.011 692.207 277.575 694.678 276.392C697.149 275.21 698.285 272.467 698.098 269.983C698.086 269.799 698.048 269.625 698.023 269.441Z" fill="black"/>
<path opacity="0.1" d="M622.337 252.935C622.491 253.371 622.604 253.817 622.674 254.269C622.868 253.094 622.752 251.897 622.337 250.766C621.963 249.768 621.339 248.857 620.927 247.86C620.627 247.135 620.434 246.381 620.353 245.615C620.168 247.105 620.364 248.612 620.927 250.029C621.339 251.026 621.963 251.948 622.337 252.935Z" fill="black"/>
</g>
<path d="M636.99 664.444C636.905 664.752 636.702 665.027 636.416 665.224C636.112 665.362 635.772 665.425 635.43 665.409C630.987 665.496 626.543 665.409 622.113 665.68C617.919 665.994 613.713 666.764 609.531 666.352C608.194 666.393 606.875 666.072 605.757 665.433C604.638 664.794 603.777 663.868 603.291 662.784C603.027 662.312 602.794 661.826 602.592 661.331C601.44 658.775 600.86 656.051 600.882 653.306C600.882 652.579 600.882 651.874 600.882 651.137C600.827 650.342 600.706 649.552 600.52 648.773C600.142 647.88 600.186 646.893 600.645 646.029C602.417 643.22 606.698 642.656 609.993 642.439C617.627 641.94 625.304 642.429 632.771 643.892C633.358 646.387 634.02 648.86 634.719 651.332C635.234 653.147 635.784 654.954 636.366 656.755C636.757 657.869 637.074 659.003 637.315 660.149C637.623 661.582 637.512 663.058 636.99 664.444Z" fill="#464353"/>
<path opacity="0.06" d="M636.99 664.444C636.905 664.752 636.702 665.027 636.416 665.224C636.112 665.362 635.772 665.425 635.43 665.409C630.987 665.496 626.543 665.409 622.113 665.68C617.919 665.994 613.713 666.764 609.532 666.352C608.194 666.393 606.875 666.072 605.757 665.433C604.639 664.794 603.777 663.868 603.291 662.784C603.027 662.312 602.794 661.826 602.592 661.331H604.19C609.444 661.331 614.711 661.168 619.966 661.168C621.551 661.168 623.149 661.103 624.721 660.941C626.294 660.778 627.579 660.55 629.015 660.398C631.163 660.22 633.322 660.144 635.48 660.171H637.252C637.577 661.592 637.487 663.061 636.99 664.444Z" fill="black"/>
<path d="M728.914 644.305C727.523 645.716 725.746 646.801 723.747 647.461C714.86 650.714 704.588 649.25 695.415 646.604C693.363 645.941 691.256 645.416 689.112 645.031C687.156 644.793 685.183 644.673 683.208 644.673C681.798 644.673 680.387 644.576 678.977 644.5C675.407 644.305 671.85 644.001 668.305 643.697C665.834 643.54 663.381 643.217 660.967 642.732C660.28 642.579 659.621 642.346 659.007 642.038V642.038C658.483 641.838 658.036 641.513 657.718 641.1C657.399 640.687 657.223 640.203 657.21 639.706C657.31 638.329 658.957 637.537 660.405 636.941C673.248 632.115 687.202 630.022 701.056 628.341C702.466 628.137 703.838 627.772 705.138 627.257C706.698 626.714 706.86 627.604 707.634 628.601C707.999 629.063 708.418 629.492 708.882 629.881C710.387 631.062 712.154 631.962 714.074 632.527C717.444 633.612 721.051 633.904 724.421 634.935C725.44 635.242 726.416 635.65 727.329 636.149C728.135 636.531 728.83 637.067 729.36 637.718C729.891 638.368 730.243 639.116 730.39 639.903C730.537 640.69 730.475 641.496 730.208 642.259C729.942 643.022 729.478 643.721 728.852 644.305H728.914Z" fill="#464353"/>
<path opacity="0.06" d="M728.914 644.305C727.523 645.716 725.746 646.801 723.747 647.461C714.86 650.714 704.588 649.25 695.415 646.604C693.363 645.941 691.256 645.416 689.112 645.031C687.156 644.793 685.183 644.673 683.208 644.673C681.798 644.673 680.387 644.576 678.977 644.5C680.125 643.556 681.298 642.635 682.497 641.745C683.365 641.04 684.365 640.468 685.455 640.053C686.811 639.667 688.257 639.581 689.661 639.804C696.8 640.661 703.215 645.01 710.417 644.63C713.772 644.295 717.018 643.384 719.965 641.951C722.362 641.103 724.499 639.781 726.206 638.091C726.721 637.508 727.114 636.851 727.367 636.149C728.172 636.531 728.867 637.067 729.398 637.718C729.928 638.368 730.281 639.116 730.428 639.903C730.574 640.69 730.512 641.496 730.246 642.259C729.979 643.022 729.515 643.721 728.889 644.305H728.914Z" fill="black"/>
<path d="M726.405 455.832C725.157 458.001 723.56 460.354 720.864 461.026C716.945 462.002 713.175 458.944 711.465 455.734C709.135 451.022 708.695 445.767 710.217 440.811C710.929 438.306 712.015 435.899 712.626 433.383C713.068 431.266 713.334 429.124 713.425 426.973C713.794 423.766 713.706 420.532 713.163 417.343C711.153 408.027 701.93 401.076 698.859 391.923C697.312 387.357 697.387 382.499 697.474 377.738C697.445 376.534 697.588 375.332 697.898 374.159C697.991 373.839 698.117 373.527 698.273 373.226C700.332 369.257 706.436 368.715 710.679 366.405C713.026 365.136 718.355 361.047 720.327 364.778C720.753 365.609 721.071 366.478 721.276 367.37C722.087 370.689 721.762 374.582 721.962 377.716C722.723 389.559 726.118 401.38 724.546 413.157C724.171 415.165 723.987 417.196 723.997 419.23C724.334 424.327 728.003 428.741 729.688 433.621C732.284 440.963 730.2 448.956 726.405 455.832Z" fill="#FBBEBE"/>
<path opacity="0.1" d="M721.338 367.392C720.411 367.099 719.395 367.099 718.467 367.392L710.018 369.561C707.057 370.247 704.171 371.158 701.393 372.283C700.181 372.8 699.031 373.421 697.961 374.137C698.054 373.817 698.179 373.505 698.335 373.205C700.395 369.235 706.498 368.693 710.742 366.383C713.088 365.114 718.418 361.026 720.39 364.756C720.819 365.601 721.137 366.485 721.338 367.392V367.392Z" fill="black"/>
<path d="M721.887 366.568C721.378 366.299 720.804 366.137 720.21 366.096C719.616 366.054 719.019 366.134 718.467 366.329L710.018 368.498C707.057 369.184 704.171 370.095 701.393 371.22C699.919 371.843 698.54 372.623 697.287 373.541C693.343 367.587 692.294 360.527 691.571 353.695C691.171 349.715 690.872 345.724 690.697 341.765C690.501 338.917 690.568 336.059 690.897 333.22C691.371 329.966 692.457 326.789 693.131 323.557C693.532 321.665 693.791 319.752 693.904 317.831C694.228 313.633 694.006 309.416 693.243 305.261C692.517 300.845 691.356 296.491 689.773 292.248C688.974 290.306 688.013 288.43 687.14 286.522L686.84 285.849C685.262 282.351 683.973 278.759 682.983 275.102C682.584 273.605 682.559 272.033 681.236 271.013C682.478 270.883 683.73 270.84 684.98 270.883C685.23 270.883 685.48 270.883 685.729 270.883C690.857 271.163 695.797 272.664 700.008 275.221C705.432 278.621 709.554 283.359 711.84 288.821C714.473 294.926 714.91 301.563 715.247 308.081C715.921 320.893 716.337 333.711 716.495 346.537C716.495 348.999 716.62 351.623 718.243 353.651C718.698 354.151 719.115 354.676 719.491 355.224C720.078 356.308 719.99 357.512 720.464 358.607C720.813 359.265 721.209 359.902 721.65 360.516C722.209 361.445 722.52 362.471 722.561 363.518C722.602 364.566 722.372 365.608 721.887 366.568Z" fill="#464353"/>
<path d="M638.812 239.27C637.564 238.913 636.316 238.533 635.068 238.186L637.664 238.359C638.097 238.612 638.484 238.919 638.812 239.27Z" fill="#FBBEBE"/>
<path d="M689.923 278.41C689.673 279.147 689.424 279.884 689.149 280.579C688.515 282.36 687.744 284.103 686.84 285.795C685.426 288.574 683.423 291.098 680.936 293.234C680.116 293.986 679.108 294.564 677.991 294.926C677.046 295.136 676.069 295.217 675.095 295.165C671.767 295.165 668.439 295.122 665.11 295.035C662.519 295.06 659.933 294.838 657.397 294.373C654.606 293.712 651.952 292.672 649.534 291.293C640.21 286.283 632.547 278.648 629.264 269.604C628.852 268.454 628.565 267.077 629.477 266.177C630.373 265.541 631.502 265.206 632.659 265.233H632.809C635.492 264.93 638.078 264.159 640.41 262.966C641.921 262.295 643.139 261.213 643.88 259.887C644.385 258.314 644.346 256.647 643.768 255.093L640.997 244.161C640.708 242.411 639.951 240.743 638.787 239.292C639.599 239.542 640.41 239.769 641.284 239.964C648.997 241.776 657.434 240.68 664.998 243.055C667.894 243.977 670.789 245.636 671.663 248.217C673.123 252.555 668.243 257.056 669.641 261.394C670.577 264.344 674.034 266.046 677.13 267.424L679.214 268.346L684.993 270.894L685.792 271.241L685.916 271.295C687.739 272.098 689.661 273.096 690.297 274.798C690.569 276.009 690.439 277.261 689.923 278.41V278.41Z" fill="#FBBEBE"/>
<path opacity="0.1" d="M705.15 303.873C704.939 306.646 704.161 309.363 702.854 311.899C700.348 316.284 699.004 321.101 698.922 325.997C697.961 340.637 691.558 358.065 700.732 370.363C700.956 370.667 701.181 370.971 701.393 371.285C699.919 371.908 698.54 372.688 697.287 373.606C693.343 367.652 692.294 360.592 691.57 353.76C691.171 349.78 690.872 345.789 690.697 341.83C690.501 338.982 690.568 336.124 690.896 333.285C691.371 330.031 692.457 326.854 693.131 323.622C693.532 321.73 693.791 319.817 693.904 317.896C694.228 313.698 694.006 309.481 693.243 305.327C692.517 300.91 691.356 296.556 689.773 292.313C688.974 290.371 688.013 288.495 687.14 286.587L686.84 285.914C685.426 288.693 683.423 291.217 680.937 293.354C680.116 294.105 679.108 294.684 677.991 295.046C677.046 295.256 676.069 295.336 675.095 295.284C671.767 295.284 668.439 295.241 665.11 295.154C662.519 295.179 659.933 294.957 657.397 294.493C654.606 293.831 651.952 292.792 649.534 291.413C640.21 286.402 632.547 278.767 629.264 269.723C628.852 268.573 628.565 267.196 629.477 266.296C630.373 265.66 631.502 265.325 632.659 265.352H632.809L644.042 277.423C645.33 278.7 646.421 280.118 647.287 281.641C647.455 282.152 647.804 282.604 648.286 282.932C648.676 283.087 649.106 283.154 649.534 283.127C660.08 283.127 674.134 283.127 684.681 283.127C684.715 281.503 684.175 279.91 683.133 278.561C682.809 278.626 682.372 278.648 683.046 278.475C682.436 274.954 681.127 271.552 679.177 268.421C679.06 268.206 678.931 267.996 678.79 267.792C677.952 266.719 677.327 265.532 676.943 264.279C678.274 263.91 679.705 263.91 681.036 264.279C682.572 264.853 683.37 266.296 684.044 267.63C684.618 268.714 685.193 269.875 685.704 271.013C685.704 271.133 685.829 271.263 685.879 271.382C686.968 273.626 687.666 275.998 687.951 278.42C688.026 279.31 688.275 280.438 689.124 280.73C689.258 280.783 689.402 280.813 689.549 280.817C690.427 280.538 691.382 280.491 692.291 280.685C693.2 280.878 694.022 281.301 694.653 281.902C695.881 283.124 696.739 284.592 697.15 286.174C697.555 287.756 698.149 289.297 698.922 290.773C700.532 293.441 698.073 294.633 700.981 296.271C702.341 296.921 703.511 297.834 704.401 298.939C705.224 300.479 705.485 302.201 705.15 303.873V303.873Z" fill="black"/>
<path opacity="0.1" d="M632.659 643.936C633.246 646.43 633.907 648.903 634.606 651.376L634.531 651.527C628.827 649.358 622.986 647.092 616.758 646.615C610.979 646.181 604.701 647.536 600.77 651.18C600.715 650.386 600.594 649.596 600.408 648.816C600.029 647.923 600.074 646.936 600.533 646.072C602.305 643.264 606.586 642.7 609.881 642.483C617.515 641.983 625.191 642.473 632.659 643.936Z" fill="black"/>
<path opacity="0.1" d="M681.823 280.546C682.409 280.546 682.197 280.546 681.91 280.632C681.623 280.719 681.149 280.719 681.823 280.546Z" fill="black"/>
<path opacity="0.1" d="M708.944 629.881C703.378 632.963 698.148 636.481 693.318 640.39C691.915 641.694 690.243 642.757 688.388 643.524C686.472 644.06 684.448 644.241 682.447 644.055C674.595 643.779 666.768 643.106 659.007 642.038V642.038C658.483 641.838 658.036 641.513 657.718 641.1C657.399 640.687 657.223 640.203 657.21 639.706C657.31 638.329 658.957 637.537 660.405 636.941C673.248 632.115 687.202 630.022 701.056 628.341C702.465 628.137 703.838 627.772 705.137 627.257C706.698 626.714 706.86 627.604 707.634 628.601C708.019 629.066 708.458 629.494 708.944 629.881V629.881Z" fill="black"/>
<path d="M617.37 267.966C619.204 269.387 621.301 270.536 623.161 271.913C628.154 275.59 631.299 280.73 634.394 285.741C632.559 286.317 630.573 286.434 628.665 286.077C627.684 290.888 627.85 295.823 629.152 300.576C626.655 302.065 624.715 304.158 623.573 306.595C622.686 309.069 622.075 311.611 621.751 314.187C619.953 325.473 618.148 336.759 616.334 348.044C616.297 349.149 615.861 350.216 615.086 351.092C614.739 351.335 614.422 351.608 614.137 351.905C613.755 352.635 613.604 353.44 613.7 354.237C613.625 355.029 613.026 355.972 612.115 355.864C611.672 355.772 611.28 355.549 611.004 355.235C610.093 354.396 609.258 353.497 608.508 352.545C601.144 364.822 597.6 378.052 593.705 391.478C590.922 401.043 588.139 410.717 588.002 420.586C588.039 425.255 588.377 429.918 589.012 434.554L590.111 444.076C590.997 451.732 591.883 459.4 592.844 467.056C593.468 471.915 594.092 476.817 596.102 481.393C599.097 488.345 595.777 496.185 597.05 503.538C598.049 509.297 600.033 515.251 598.036 520.803C597.238 523.027 595.84 525.055 594.791 527.202C592.22 532.537 591.958 538.47 591.733 544.25C591.329 549.317 591.547 554.406 592.382 559.433C593.456 564.628 595.865 569.714 595.39 574.963C594.729 582.435 588.388 588.822 587.615 596.284C587.003 602.238 590.011 607.985 593.244 613.267C595.628 617.16 592.308 622.192 591.047 626.476C588.551 634.87 592.707 643.654 597.799 651.104C597.929 651.36 598.159 651.568 598.448 651.69C599.035 651.874 599.559 651.376 599.946 650.953C603.778 646.68 610.568 645.064 616.796 645.53C623.024 645.997 628.852 648.231 634.569 650.443L642.669 634.772C644.042 632.115 645.44 629.241 644.753 626.389C644.267 624.35 642.756 622.626 641.683 620.761C639.187 616.358 639.062 611.228 639.037 606.293L638.887 578.422C645.203 571.525 649.059 563.326 651.493 554.759C655.227 566.809 655.484 579.474 652.242 591.631C651.642 593.469 651.225 595.349 650.994 597.249C650.507 604.981 657.484 611.521 659.344 619.09C659.524 619.67 659.575 620.273 659.494 620.869C659.284 621.602 658.934 622.298 658.458 622.93C655.113 628.2 655.475 634.588 655.962 640.596C664.714 641.92 673.557 642.742 682.434 643.058C684.436 643.231 686.457 643.05 688.375 642.526C690.231 641.756 691.903 640.689 693.305 639.381C698.972 634.75 705.194 630.66 711.865 627.181C708.14 621.811 702.926 617.336 696.7 614.167C698.71 611.597 703.29 611.803 705.961 609.742C707.302 608.589 708.178 607.09 708.457 605.469C709.456 601.218 708.22 596.793 706.985 592.618C704.588 584.398 702.179 576.145 698.248 568.38C696.47 565.189 694.903 561.912 693.555 558.565C690.285 549.217 692.569 539.044 690.098 529.49C689.299 526.432 688.013 523.276 688.912 520.229C690.285 515.533 696.401 512.746 697.749 508.039C702.579 491.284 703.44 473.921 706.186 456.819C706.8 453.552 707.13 450.249 707.172 446.939C707.172 443.479 706.461 440.052 706.173 436.604C705.05 422.798 710.13 409.025 708.832 395.231C708.001 386.729 704.778 378.536 699.446 371.372C690.272 359.063 696.675 341.646 697.636 327.005C697.709 322.11 699.048 317.291 701.555 312.907C702.874 310.374 703.656 307.656 703.864 304.882C704.249 303.172 704.005 301.4 703.165 299.817C702.287 298.707 701.12 297.793 699.758 297.149C696.85 295.501 699.309 294.308 697.699 291.64C696.924 290.166 696.33 288.624 695.926 287.042C695.518 285.462 694.66 283.997 693.43 282.78C692.799 282.18 691.977 281.756 691.068 281.563C690.159 281.37 689.204 281.416 688.325 281.696C687.14 281.696 686.815 280.329 686.715 279.299C686.378 275.525 684.581 271.979 682.821 268.508C682.147 267.174 681.348 265.732 679.813 265.157C678.476 264.794 677.044 264.794 675.707 265.157C676.093 266.415 676.722 267.606 677.567 268.682C679.73 271.98 681.169 275.598 681.81 279.353C680.562 279.678 683.058 279.353 681.81 279.353C682.928 280.706 683.502 282.341 683.445 284.005C672.911 284.005 658.857 284.005 648.311 284.005C647.882 284.035 647.452 283.968 647.063 283.81C646.581 283.48 646.229 283.03 646.052 282.52C645.193 280.996 644.102 279.581 642.806 278.312L630.45 265.07C630.176 264.724 629.812 264.438 629.389 264.235C628.879 264.11 628.339 264.11 627.829 264.235C623.823 264.745 620.864 266.198 617.37 267.966Z" fill="#ADFF2F"/>
<path opacity="0.1" d="M661.715 447.384C663.846 447.358 665.945 447.83 667.794 448.75C668.711 449.219 669.473 449.888 670.002 450.69C670.532 451.493 670.812 452.401 670.814 453.327C670.677 455.376 668.867 457.003 667.557 458.749C666.746 459.813 666.099 460.965 665.635 462.176C665.491 462.451 665.456 462.76 665.535 463.054C665.684 463.466 666.196 463.673 666.633 463.857C668.221 464.481 669.577 465.477 670.55 466.734C671.522 467.991 672.072 469.458 672.137 470.971C672.025 475.201 667.27 478.628 667.532 482.901C667.651 483.79 667.826 484.674 668.056 485.547C668.627 489.188 668.044 492.897 666.371 496.272C664.861 499.677 662.801 502.877 661.179 506.249C656.798 515.413 655.849 525.564 656.186 535.531C656.448 542.298 653.69 548.74 651.194 555.182C652.604 542.206 652.98 529.161 652.317 516.14C652.142 512.605 651.631 509.264 651.818 505.718C652.117 500.09 655.737 494.971 656.661 489.451C657.185 486.295 656.835 483.085 656.923 479.896C657.097 473.39 659.132 466.969 659.269 460.441C659.444 455.832 658.957 451.082 661.715 447.384Z" fill="black"/>
<path d="M609.631 270.287C607.15 271.362 604.828 272.694 602.717 274.256C600.511 276.161 598.666 278.357 597.25 280.763C595.526 283.491 593.981 286.3 592.62 289.178C590.86 292.909 589.399 297.041 590.61 300.934C591.708 304.459 594.816 307.203 596.963 310.337C599.11 313.471 600.37 317.147 602.018 320.585C604.215 325.173 607.223 329.446 609.394 334.044C611.566 338.642 612.877 343.804 611.504 348.587C611.104 349.997 608.471 351.092 608.471 352.534C608.471 354.92 612.44 357.512 615.073 358.206C618.106 359.019 621.414 357.805 623.897 356.037C628.453 352.903 631.224 348.207 633.271 343.479C636.566 335.887 638.326 327.83 639.911 319.826C641.059 313.948 642.132 308.059 642.744 302.138C643.306 296.802 643.48 291.293 641.858 286.174C640.344 281.476 637.399 277.22 633.333 273.855C630.088 271.143 624.771 267.5 620.053 267.402C616.321 267.391 612.827 268.758 609.631 270.287Z" fill="#464353"/>
<path d="M645.115 401.022C644.98 401.763 644.661 402.47 644.18 403.093C643.7 403.717 643.069 404.242 642.332 404.633C640.859 405.411 639.254 405.982 637.577 406.325C634.232 407.171 630.687 407.952 627.305 407.203C624.647 406.451 622.192 405.237 620.091 403.635L582.298 378.497C579.262 376.627 576.47 374.474 573.973 372.077C572.539 370.529 571.221 368.902 570.029 367.207C568.449 365.267 567.212 363.132 566.359 360.874C566.054 359.88 565.903 358.855 565.91 357.827C565.9 356.854 566.175 355.895 566.709 355.039C567.62 353.716 569.567 353.445 571.164 353.077C576.526 351.872 582.092 351.505 587.602 351.992C588.086 351.972 588.565 352.089 588.965 352.326C589.366 352.562 589.667 352.906 589.824 353.304C590.66 354.638 591.384 356.026 592.133 357.414C593.282 359.781 594.78 362.009 596.589 364.041C598.331 365.687 600.186 367.24 602.143 368.693C606.137 371.947 609.407 375.851 613.663 378.844C618.593 382.303 624.584 384.375 630.2 386.923C635.817 389.472 641.359 392.78 644.179 397.714C644.834 398.721 645.158 399.865 645.115 401.022Z" fill="#FBBEBE"/>
<path opacity="0.1" d="M688.862 225.638C688.863 232.485 685.855 239.074 680.451 244.057C675.047 249.041 667.656 252.042 659.79 252.448C651.924 252.854 644.176 250.633 638.132 246.24C632.087 241.848 628.202 235.614 627.272 228.815C626.341 222.016 628.434 215.165 633.124 209.663C637.813 204.16 644.745 200.423 652.501 199.213C660.258 198.004 668.252 199.415 674.851 203.158C681.45 206.901 686.153 212.692 688.001 219.348C688.574 221.408 688.863 223.519 688.862 225.638V225.638Z" fill="black"/>
<path d="M680 224.995C680.001 231.625 678.005 238.005 674.42 242.83C670.836 247.655 665.933 250.561 660.715 250.954C655.497 251.347 650.357 249.197 646.348 244.944C642.338 240.69 639.761 234.655 639.144 228.071C638.526 221.488 639.915 214.854 643.026 209.527C646.137 204.199 650.735 200.579 655.88 199.409C661.025 198.238 666.328 199.604 670.706 203.228C675.083 206.852 678.203 212.46 679.429 218.905C679.809 220.899 680 222.944 680 224.995V224.995Z" fill="#FBBEBE"/>
<path opacity="0.1" d="M592.133 357.371C590.71 358.163 588.601 357.902 586.841 357.555C579.901 356.211 572.238 355.245 565.91 357.827C565.9 356.854 566.175 355.895 566.709 355.039C567.62 353.716 569.567 353.445 571.164 353.077C576.526 351.872 582.092 351.505 587.602 351.992C588.086 351.972 588.565 352.089 588.965 352.326C589.366 352.562 589.667 352.906 589.824 353.304C590.66 354.595 591.384 355.983 592.133 357.371Z" fill="black"/>
<path d="M579.09 320.856C577.555 325.194 576.294 329.652 573.286 333.328C572.292 334.295 571.543 335.433 571.089 336.668C571.055 337.58 570.883 338.485 570.578 339.358C570.153 340.095 569.255 340.583 568.893 341.342C568.356 342.427 569.055 343.826 568.344 344.845C568.01 345.254 567.611 345.62 567.158 345.93C565.46 347.296 565.036 349.476 564.999 351.493C564.961 353.51 565.186 355.571 564.424 357.469C571.015 354.052 579.402 355.072 586.891 356.525C588.975 356.926 591.559 357.23 592.907 355.777C594.255 354.324 593.481 352.415 593.668 350.669C593.918 348.391 595.715 346.504 596.826 344.433C598.074 342.101 598.498 339.499 599.459 337.069C601.444 331.962 605.7 327.797 608.433 322.971C609.445 321.311 610.049 319.487 610.206 317.614C610.111 315.186 609.381 312.808 608.071 310.662C605.474 305.664 602.384 300.871 598.835 296.336C597.25 294.308 594.517 290.556 592.058 293.798C590.061 296.412 588.813 299.741 587.34 302.604C584.166 308.537 581.411 314.633 579.09 320.856Z" fill="#464353"/>
<path d="M691 271.944C687.492 272.185 683.974 271.642 680.704 270.355C677.433 269.068 674.492 267.07 672.096 264.506C671.693 264.14 671.401 263.668 671.255 263.144C671.188 262.463 671.38 261.782 671.792 261.235C673.194 259.082 675.613 257.661 676.734 255.345C677.856 253.028 677.471 250.363 677.576 247.825C677.763 243.274 679.562 238.769 679.714 234.287C679.768 233.14 679.682 231.991 679.457 230.865C678.919 229.192 678.589 227.46 678.475 225.708C678.627 222.297 681.712 219.643 682.226 216.279C682.892 211.995 679.328 208.27 675.741 205.803C673.006 203.913 670.037 202.383 666.909 201.251C664.987 200.565 662.997 200.085 660.973 199.819C657.2 199.312 653.36 199.739 649.792 201.065C648.316 201.62 646.918 202.363 645.633 203.277C644.868 203.759 644.231 204.418 643.775 205.197C643.401 206.075 643.233 207.027 643.285 207.979C643.215 212.74 643.752 217.804 641.474 221.948C640.305 224.171 638.319 225.976 637.349 228.327C636.953 229.305 636.704 230.337 636.613 231.389C636.496 232.479 636.438 233.575 636.438 234.671C636.368 240.806 636.438 247.278 639.569 252.598C640.674 254.206 641.677 255.882 642.572 257.615C643.006 258.492 643.207 259.465 643.156 260.441C643.105 261.417 642.803 262.364 642.28 263.191C641.647 263.945 640.847 264.543 639.943 264.937C637.623 266.046 635.099 266.666 632.528 266.758C629.956 266.85 627.394 266.412 625 265.472C627.799 262.829 629.722 259.398 630.511 255.637C631.3 251.876 630.918 247.965 629.416 244.426C628.572 242.997 628.024 241.414 627.804 239.77C627.921 238.289 628.318 236.844 628.972 235.509C630.574 231.135 630.822 226.383 629.685 221.867C628.972 219.096 627.734 216.419 627.512 213.567C627.327 211.414 627.421 209.247 627.792 207.118C628.433 203.31 630.117 199.751 632.659 196.837C635.201 193.922 638.502 191.763 642.198 190.6C642.794 190.402 643.366 190.216 644.021 190.053C646.855 189.426 649.751 189.118 652.655 189.133C659.139 188.924 665.717 188.738 671.968 190.425C675.637 191.383 679.051 193.131 681.969 195.547C684.04 197.282 685.693 199.458 686.806 201.915C687.414 203.33 687.872 204.805 688.173 206.315C688.441 207.56 688.64 208.818 688.839 210.075C690.252 219.026 691.666 228.153 690.159 237.093C689.563 240.585 688.523 244.077 688.056 247.639C686.922 255.845 688.967 264.005 691 271.944Z" fill="#464353"/>
<path d="M647.362 289.471C648.644 289.471 649.684 288.568 649.684 287.454C649.684 286.34 648.644 285.437 647.362 285.437C646.08 285.437 645.041 286.34 645.041 287.454C645.041 288.568 646.08 289.471 647.362 289.471Z" fill="white"/>
<path d="M686.54 288.517C687.823 288.517 688.862 287.614 688.862 286.5C688.862 285.386 687.823 284.483 686.54 284.483C685.258 284.483 684.219 285.386 684.219 286.5C684.219 287.614 685.258 288.517 686.54 288.517Z" fill="white"/>
<g opacity="0.1">
<path opacity="0.1" d="M639.661 268.454C638.985 269.157 638.131 269.714 637.165 270.081C632.739 271.921 627.69 272.287 622.974 271.111C622.426 271.69 621.833 272.237 621.201 272.749C623.759 273.624 626.496 274.032 629.243 273.946C631.99 273.861 634.687 273.283 637.165 272.25C638.131 271.883 638.985 271.326 639.661 270.623C640.091 270.082 640.384 269.467 640.521 268.821C640.659 268.174 640.638 267.51 640.46 266.871C640.335 267.444 640.062 267.986 639.661 268.454Z" fill="black"/>
<path opacity="0.1" d="M626.119 232.135C626.527 233.555 626.765 235.009 626.83 236.472C626.974 234.285 626.734 232.091 626.119 229.966C625.358 227.384 624.035 224.89 623.798 222.233C623.798 221.897 623.798 221.561 623.735 221.214C623.675 222.277 623.696 223.342 623.798 224.402C624.035 227.059 625.358 229.553 626.119 232.135Z" fill="black"/>
<path opacity="0.1" d="M690.722 246.32C691.252 243.452 691.477 240.547 691.396 237.644C691.352 239.824 691.127 241.999 690.722 244.151C690.085 247.404 688.974 250.658 688.475 253.976C688.218 255.756 688.122 257.551 688.188 259.344C688.222 258.274 688.318 257.207 688.475 256.145C688.974 252.826 690.085 249.606 690.722 246.32Z" fill="black"/>
<path opacity="0.1" d="M625.869 250.972C625.216 249.904 624.689 248.781 624.297 247.621C624.191 248.012 624.141 248.412 624.147 248.814C624.382 250.345 624.968 251.82 625.869 253.152C626.786 254.97 627.314 256.917 627.43 258.9C627.655 256.186 627.12 253.466 625.869 250.972V250.972Z" fill="black"/>
<path opacity="0.1" d="M679.376 240.442C679.486 240.937 679.565 241.436 679.613 241.938C679.613 241.776 679.613 241.624 679.613 241.461C679.671 240.393 679.579 239.322 679.339 238.273C679.064 237.134 678.615 236.006 678.403 234.857C678.341 235.114 678.303 235.375 678.29 235.637C678.424 237.271 678.789 238.885 679.376 240.442V240.442Z" fill="black"/>
<path opacity="0.1" d="M671.513 269.614C671.321 269.44 671.142 269.255 670.976 269.061C670.669 269.496 670.542 270.008 670.614 270.514C670.771 271.003 671.082 271.442 671.513 271.783C674.073 274.172 677.215 276.034 680.708 277.233C684.202 278.432 687.96 278.938 691.708 278.713C691.496 277.997 691.283 277.293 691.084 276.544C687.439 276.69 683.801 276.146 680.421 274.949C677.042 273.753 674.003 271.932 671.513 269.614V269.614Z" fill="black"/>
<path opacity="0.1" d="M682.309 224.836C682.303 224.796 682.303 224.756 682.309 224.717C683.021 220.726 679.214 217.255 675.382 214.956C672.46 213.196 669.289 211.77 665.947 210.716C663.894 210.077 661.768 209.63 659.606 209.382C655.575 208.909 651.473 209.307 647.662 210.542C646.084 211.059 644.591 211.752 643.218 212.603C642.401 213.052 641.72 213.666 641.234 214.392C640.834 215.21 640.654 216.097 640.71 216.984C640.71 217.732 640.71 218.481 640.71 219.24V219.153C640.654 218.266 640.834 217.379 641.234 216.561C641.72 215.835 642.401 215.221 643.218 214.772C644.591 213.921 646.084 213.228 647.662 212.711C651.473 211.476 655.575 211.078 659.606 211.551C661.768 211.799 663.894 212.246 665.947 212.885C669.289 213.939 672.46 215.364 675.382 217.125C678.565 218.991 681.698 221.68 682.309 224.836Z" fill="black"/>
<path opacity="0.1" d="M638.8 230.031C637.552 232.102 635.43 233.783 634.394 235.974C633.97 236.885 633.705 237.846 633.608 238.826C633.483 239.842 633.42 240.862 633.421 241.884C633.421 242.806 633.421 243.739 633.421 244.671C633.421 244.465 633.421 244.259 633.421 244.053C633.42 243.031 633.483 242.011 633.608 240.995C633.705 240.015 633.97 239.054 634.394 238.143C635.43 235.974 637.502 234.271 638.8 232.2C640.809 228.946 640.772 225.205 640.735 221.485C640.9 224.428 640.236 227.361 638.8 230.031V230.031Z" fill="black"/>
</g>
<path d="M625.912 410.191L632.524 407.823L598.756 336.635L592.144 339.003L625.912 410.191Z" fill="#D6D8E1"/>
<path d="M496.805 374.331C498.288 377.218 498.684 380.698 499.257 384.083C499.575 386.462 500.229 388.754 501.189 390.852C502.453 393.345 504.385 395.143 506.199 397.073C506.53 397.432 506.861 397.804 507.18 398.155C507.41 398.411 507.64 398.689 507.859 398.959C509.986 401.628 511.564 405.744 510.281 409.07C510.242 409.183 510.197 409.293 510.146 409.399C510.249 409.486 510.358 409.564 510.471 409.633C512.101 410.612 514.151 409.048 515.498 407.388C517.649 404.727 519.51 401.642 521.466 398.726C523.699 395.392 526.068 392.27 529.146 390.282C530.283 389.562 531.469 388.97 532.691 388.513C534.505 387.782 536.384 387.263 538.204 386.561C540.703 385.572 543.13 384.322 545.459 382.825C549.5 380.149 553.406 377.173 557.157 373.914L557.713 373.446C558.972 372.469 560.141 371.325 561.198 370.032C561.387 369.784 561.571 369.528 561.742 369.257C562.652 367.795 563.249 366.121 564.105 364.622C564.994 363.083 566.108 361.764 567.39 360.733C571.006 357.758 575.804 356.617 580.099 355.016H580.146C587.822 352.127 594.816 346.977 600.529 340.008C601.003 339.519 601.357 338.876 601.552 338.151C601.735 337.12 601.286 336.097 600.854 335.19C600.352 334.123 599.862 333.056 599.377 331.974C597.198 327.067 595.253 322.007 593.552 316.819C593.18 315.679 592.819 314.546 592.471 313.398C591.576 310.474 590.761 307.508 590.025 304.501C589.782 303.507 589.546 302.506 589.322 301.504C589.28 301.314 589.233 301.109 589.192 300.89C588.211 296.014 586.899 284.602 582.858 288.016C581.656 289.079 580.538 290.281 579.52 291.606C578.734 292.593 577.966 293.609 577.157 294.588C576.497 295.391 575.801 296.145 575.071 296.847C574.33 297.549 573.539 298.166 572.708 298.689C569.499 300.722 566.108 302.425 562.983 304.604C561.262 305.767 559.645 307.154 558.162 308.741C556.1 310.993 554.351 313.771 551.946 315.401L551.686 315.577C547.444 318.245 542.452 316.644 537.625 316.527C536.915 316.505 536.205 316.527 535.498 316.593C531.581 316.958 528 318.903 524.538 321.279C522.104 322.946 519.729 324.832 517.336 326.535C515.823 327.61 514.311 328.772 512.787 329.964C508.923 332.975 505.005 336.134 500.97 338.414C496.834 340.739 492.563 342.128 488.055 341.492C487.671 345.257 490.129 348.298 491.771 351.617C492.56 353.044 493.038 354.698 493.159 356.42C493.181 357.064 493.144 357.709 493.047 358.343C492.716 360.675 491.866 362.956 492.078 365.302C492.246 366.64 492.683 367.905 493.349 368.979C494.377 370.8 495.824 372.43 496.805 374.331Z" fill="#F86D70"/>
<path d="M608.184 374.181C608.184 374.181 619.117 382.466 630.2 386.88C641.284 391.294 633.945 407.127 633.945 407.127C633.945 407.127 622.2 409.47 613.975 399.536C605.75 389.602 608.184 374.181 608.184 374.181Z" fill="#FBBEBE"/>
<path d="M418.977 230H490.04C490.727 229.997 491.401 229.837 491.997 229.537C492.593 229.237 493.091 228.807 493.442 228.287C493.793 227.768 493.985 227.178 493.999 226.574C494.014 225.971 493.85 225.374 493.525 224.842L458.011 166.839C457.671 166.283 457.165 165.819 456.549 165.495C455.932 165.171 455.227 165 454.509 165C453.79 165 453.085 165.171 452.469 165.495C451.852 165.819 451.347 166.283 451.007 166.839L415.475 224.842C415.149 225.375 414.986 225.973 415.001 226.578C415.016 227.183 415.21 227.774 415.563 228.294C415.915 228.814 416.416 229.244 417.014 229.543C417.612 229.842 418.289 229.999 418.977 230V230ZM459.03 219.401H449.987V211.456H459.03V219.401ZM459.03 206.156H449.987V190.262H459.03V206.156Z" fill="#464353"/>
</svg>
